<?xml version="1.0" encoding="UTF-8" standalone="no"?>
<!DOCTYPE svg PUBLIC "-//W3C//DTD SVG 1.1//EN"
 "http://www.w3.org/Graphics/SVG/1.1/DTD/svg11.dtd">
<!-- Generated by graphviz version 2.49.1 (20210923.0004)
 -->
<!-- Title: G Pages: 1 -->
<svg width="563pt" height="404pt"
 viewBox="0.00 0.00 563.24 404.00" xmlns="http://www.w3.org/2000/svg" xmlns:xlink="http://www.w3.org/1999/xlink">
<g id="graph0" class="graph" transform="scale(1 1) rotate(0) translate(4 400)">
<title>G</title>
<polygon fill="white" stroke="transparent" points="-4,4 -4,-400 559.24,-400 559.24,4 -4,4"/>
<!-- pppw -->
<g id="node1" class="node">
<title>pppw</title>
<ellipse fill="none" stroke="black" cx="244.5" cy="-306" rx="55.79" ry="18"/>
<text text-anchor="middle" x="244.5" y="-302.3" font-family="Times,serif" font-size="14.00">pppw (/) = 2</text>
</g>
<!-- cczh -->
<g id="node2" class="node">
<title>cczh</title>
<ellipse fill="none" stroke="black" cx="129.5" cy="-234" rx="55.49" ry="18"/>
<text text-anchor="middle" x="129.5" y="-230.3" font-family="Times,serif" font-size="14.00">cczh (+) = 8</text>
</g>
<!-- pppw&#45;&gt;cczh -->
<g id="edge1" class="edge">
<title>pppw&#45;&gt;cczh</title>
<path fill="none" stroke="black" d="M219.54,-289.81C203.12,-279.81 181.41,-266.6 163.42,-255.65"/>
<polygon fill="black" stroke="black" points="164.76,-252.37 154.4,-250.16 161.12,-258.35 164.76,-252.37"/>
</g>
<!-- lfqf -->
<g id="node3" class="node">
<title>lfqf</title>
<ellipse fill="none" stroke="black" cx="248.5" cy="-234" rx="46.29" ry="18"/>
<text text-anchor="middle" x="248.5" y="-230.3" font-family="Times,serif" font-size="14.00"> lfqf &#160;( 4 )</text>
</g>
<!-- pppw&#45;&gt;lfqf -->
<g id="edge2" class="edge">
<title>pppw&#45;&gt;lfqf</title>
<path fill="none" stroke="black" d="M245.48,-287.7C245.93,-279.98 246.46,-270.71 246.95,-262.11"/>
<polygon fill="black" stroke="black" points="250.44,-262.29 247.52,-252.1 243.45,-261.89 250.44,-262.29"/>
</g>
<!-- sllz -->
<g id="node10" class="node">
<title>sllz</title>
<ellipse fill="none" stroke="black" cx="45.5" cy="-162" rx="45.49" ry="18"/>
<text text-anchor="middle" x="45.5" y="-158.3" font-family="Times,serif" font-size="14.00"> sllz &#160;( 4 )</text>
</g>
<!-- cczh&#45;&gt;sllz -->
<g id="edge11" class="edge">
<title>cczh&#45;&gt;sllz</title>
<path fill="none" stroke="black" d="M110.01,-216.76C98.72,-207.36 84.35,-195.38 72.04,-185.12"/>
<polygon fill="black" stroke="black" points="74.22,-182.38 64.29,-178.67 69.74,-187.76 74.22,-182.38"/>
</g>
<!-- lgvd -->
<g id="node15" class="node">
<title>lgvd</title>
<ellipse fill="none" stroke="black" cx="162.5" cy="-162" rx="53.89" ry="18"/>
<text text-anchor="middle" x="162.5" y="-158.3" font-family="Times,serif" font-size="14.00">lgvd (*) = 4</text>
</g>
<!-- cczh&#45;&gt;lgvd -->
<g id="edge12" class="edge">
<title>cczh&#45;&gt;lgvd</title>
<path fill="none" stroke="black" d="M137.48,-216.05C141.24,-208.09 145.8,-198.41 150,-189.51"/>
<polygon fill="black" stroke="black" points="153.25,-190.81 154.35,-180.28 146.92,-187.83 153.25,-190.81"/>
</g>
<!-- drzm -->
<g id="node4" class="node">
<title>drzm</title>
<ellipse fill="none" stroke="black" cx="379.5" cy="-234" rx="59.59" ry="18"/>
<text text-anchor="middle" x="379.5" y="-230.3" font-family="Times,serif" font-size="14.00">drzm (&#45;) = 30</text>
</g>
<!-- hmdt -->
<g id="node5" class="node">
<title>hmdt</title>
<ellipse fill="none" stroke="black" cx="347.5" cy="-162" rx="55.79" ry="18"/>
<text text-anchor="middle" x="347.5" y="-158.3" font-family="Times,serif" font-size="14.00"> hmdt &#160;( 32 )</text>
</g>
<!-- drzm&#45;&gt;hmdt -->
<g id="edge3" class="edge">
<title>drzm&#45;&gt;hmdt</title>
<path fill="none" stroke="black" d="M371.75,-216.05C368.11,-208.09 363.68,-198.41 359.61,-189.51"/>
<polygon fill="black" stroke="black" points="362.73,-187.91 355.39,-180.28 356.37,-190.83 362.73,-187.91"/>
</g>
<!-- zczc -->
<g id="node6" class="node">
<title>zczc</title>
<ellipse fill="none" stroke="black" cx="470.5" cy="-162" rx="48.99" ry="18"/>
<text text-anchor="middle" x="470.5" y="-158.3" font-family="Times,serif" font-size="14.00"> zczc &#160;( 2 )</text>
</g>
<!-- drzm&#45;&gt;zczc -->
<g id="edge4" class="edge">
<title>drzm&#45;&gt;zczc</title>
<path fill="none" stroke="black" d="M400.6,-216.76C413.04,-207.2 428.92,-194.98 442.41,-184.61"/>
<polygon fill="black" stroke="black" points="444.65,-187.3 450.44,-178.43 440.38,-181.75 444.65,-187.3"/>
</g>
<!-- dbpl -->
<g id="node7" class="node">
<title>dbpl</title>
<ellipse fill="none" stroke="black" cx="506.5" cy="-234" rx="48.99" ry="18"/>
<text text-anchor="middle" x="506.5" y="-230.3" font-family="Times,serif" font-size="14.00"> dbpl &#160;( 5 )</text>
</g>
<!-- humn -->
<g id="node8" class="node">
<title>humn</title>
<ellipse fill="none" stroke="black" cx="161.5" cy="-18" rx="53.09" ry="18"/>
<text text-anchor="middle" x="161.5" y="-14.3" font-family="Times,serif" font-size="14.00"> humn &#160;( 5 )</text>
</g>
<!-- ljgn -->
<g id="node9" class="node">
<title>ljgn</title>
<ellipse fill="none" stroke="black" cx="104.5" cy="-90" rx="46.59" ry="18"/>
<text text-anchor="middle" x="104.5" y="-86.3" font-family="Times,serif" font-size="14.00"> ljgn &#160;( 2 )</text>
</g>
<!-- root -->
<g id="node11" class="node">
<title>root</title>
<ellipse fill="none" stroke="black" cx="313.5" cy="-378" rx="62.29" ry="18"/>
<text text-anchor="middle" x="313.5" y="-374.3" font-family="Times,serif" font-size="14.00">root (+) = 152</text>
</g>
<!-- root&#45;&gt;pppw -->
<g id="edge5" class="edge">
<title>root&#45;&gt;pppw</title>
<path fill="none" stroke="black" d="M297.14,-360.41C288.38,-351.52 277.43,-340.41 267.79,-330.63"/>
<polygon fill="black" stroke="black" points="270.24,-328.13 260.73,-323.47 265.26,-333.05 270.24,-328.13"/>
</g>
<!-- sjmn -->
<g id="node12" class="node">
<title>sjmn</title>
<ellipse fill="none" stroke="black" cx="382.5" cy="-306" rx="64.19" ry="18"/>
<text text-anchor="middle" x="382.5" y="-302.3" font-family="Times,serif" font-size="14.00">sjmn (*) = 150</text>
</g>
<!-- root&#45;&gt;sjmn -->
<g id="edge6" class="edge">
<title>root&#45;&gt;sjmn</title>
<path fill="none" stroke="black" d="M329.85,-360.41C338.61,-351.52 349.56,-340.41 359.2,-330.63"/>
<polygon fill="black" stroke="black" points="361.73,-333.05 366.26,-323.47 356.75,-328.13 361.73,-333.05"/>
</g>
<!-- sjmn&#45;&gt;drzm -->
<g id="edge9" class="edge">
<title>sjmn&#45;&gt;drzm</title>
<path fill="none" stroke="black" d="M381.75,-287.7C381.42,-279.98 381.03,-270.71 380.66,-262.11"/>
<polygon fill="black" stroke="black" points="384.15,-261.95 380.23,-252.1 377.16,-262.25 384.15,-261.95"/>
</g>
<!-- sjmn&#45;&gt;dbpl -->
<g id="edge10" class="edge">
<title>sjmn&#45;&gt;dbpl</title>
<path fill="none" stroke="black" d="M409.71,-289.64C428.05,-279.28 452.39,-265.54 472.08,-254.43"/>
<polygon fill="black" stroke="black" points="474.05,-257.33 481.04,-249.37 470.61,-251.24 474.05,-257.33"/>
</g>
<!-- ptdq -->
<g id="node13" class="node">
<title>ptdq</title>
<ellipse fill="none" stroke="black" cx="221.5" cy="-90" rx="52.79" ry="18"/>
<text text-anchor="middle" x="221.5" y="-86.3" font-family="Times,serif" font-size="14.00">ptdq (&#45;) = 2</text>
</g>
<!-- ptdq&#45;&gt;humn -->
<g id="edge7" class="edge">
<title>ptdq&#45;&gt;humn</title>
<path fill="none" stroke="black" d="M207.28,-72.41C199.8,-63.69 190.51,-52.85 182.25,-43.21"/>
<polygon fill="black" stroke="black" points="184.78,-40.78 175.61,-35.47 179.46,-45.34 184.78,-40.78"/>
</g>
<!-- dvpt -->
<g id="node14" class="node">
<title>dvpt</title>
<ellipse fill="none" stroke="black" cx="281.5" cy="-18" rx="48.99" ry="18"/>
<text text-anchor="middle" x="281.5" y="-14.3" font-family="Times,serif" font-size="14.00"> dvpt &#160;( 3 )</text>
</g>
<!-- ptdq&#45;&gt;dvpt -->
<g id="edge8" class="edge">
<title>ptdq&#45;&gt;dvpt</title>
<path fill="none" stroke="black" d="M235.72,-72.41C243.19,-63.69 252.49,-52.85 260.75,-43.21"/>
<polygon fill="black" stroke="black" points="263.53,-45.34 267.38,-35.47 258.21,-40.78 263.53,-45.34"/>
</g>
<!-- lgvd&#45;&gt;ljgn -->
<g id="edge13" class="edge">
<title>lgvd&#45;&gt;ljgn</title>
<path fill="none" stroke="black" d="M148.75,-144.41C141.53,-135.69 132.54,-124.85 124.55,-115.21"/>
<polygon fill="black" stroke="black" points="127.22,-112.94 118.14,-107.47 121.83,-117.4 127.22,-112.94"/>
</g>
<!-- lgvd&#45;&gt;ptdq -->
<g id="edge14" class="edge">
<title>lgvd&#45;&gt;ptdq</title>
<path fill="none" stroke="black" d="M176.48,-144.41C183.83,-135.69 192.97,-124.85 201.09,-115.21"/>
<polygon fill="black" stroke="black" points="203.85,-117.37 207.61,-107.47 198.49,-112.86 203.85,-117.37"/>
</g>
</g>
</svg>
