<?xml version="1.0" encoding="UTF-8" standalone="no"?>
<!DOCTYPE svg PUBLIC "-//W3C//DTD SVG 1.1//EN"
 "http://www.w3.org/Graphics/SVG/1.1/DTD/svg11.dtd">
<!-- Generated by graphviz version 2.49.1 (20210923.0004)
 -->
<!-- Pages: 1 -->
<svg width="680pt" height="1001pt"
 viewBox="0.00 0.00 680.00 1001.00" xmlns="http://www.w3.org/2000/svg" xmlns:xlink="http://www.w3.org/1999/xlink">
<g id="graph0" class="graph" transform="scale(1 1) rotate(0) translate(4 997)">
<polygon fill="white" stroke="transparent" points="-4,4 -4,-997 676,-997 676,4 -4,4"/>
<!-- QE -->
<g id="node1" class="node">
<title>QE</title>
<ellipse fill="none" stroke="black" cx="423" cy="-975" rx="27" ry="18"/>
<text text-anchor="middle" x="423" y="-971.3" font-family="Times,serif" font-size="14.00">QE</text>
</g>
<!-- OQ -->
<g id="node2" class="node">
<title>OQ</title>
<ellipse fill="none" stroke="black" cx="366" cy="-888" rx="27" ry="18"/>
<text text-anchor="middle" x="366" y="-884.3" font-family="Times,serif" font-size="14.00">OQ</text>
</g>
<!-- QE&#45;&gt;OQ -->
<g id="edge1" class="edge">
<title>QE&#45;&gt;OQ</title>
<path fill="none" stroke="black" d="M412.67,-958.19C406.2,-948.33 397.66,-935.39 390,-924 387.59,-920.42 385.03,-916.65 382.52,-912.97"/>
<polygon fill="black" stroke="black" points="385.35,-910.91 376.81,-904.64 379.58,-914.87 385.35,-910.91"/>
<text text-anchor="middle" x="402.5" y="-927.8" font-family="Times,serif" font-size="14.00">3</text>
</g>
<!-- QJ -->
<g id="node3" class="node">
<title>QJ</title>
<ellipse fill="none" stroke="black" cx="353" cy="-627" rx="27" ry="18"/>
<text text-anchor="middle" x="353" y="-623.3" font-family="Times,serif" font-size="14.00">QJ</text>
</g>
<!-- QE&#45;&gt;QJ -->
<g id="edge2" class="edge">
<title>QE&#45;&gt;QJ</title>
<path fill="none" stroke="black" d="M438.91,-960.41C455.15,-944.93 478,-918 478,-889 478,-889 478,-889 478,-713 478,-687.31 468.69,-679.5 449,-663 431.86,-648.64 408.33,-639.94 388.86,-634.8"/>
<polygon fill="black" stroke="black" points="389.64,-631.39 379.1,-632.43 387.99,-638.19 389.64,-631.39"/>
<text text-anchor="middle" x="481.5" y="-797.3" font-family="Times,serif" font-size="14.00">3</text>
</g>
<!-- OQ&#45;&gt;QE -->
<g id="edge53" class="edge">
<title>OQ&#45;&gt;QE</title>
<path fill="none" stroke="black" d="M369.92,-906.18C372.77,-916.31 377.3,-929.05 384,-939 387.73,-944.55 392.54,-949.79 397.49,-954.46"/>
<polygon fill="black" stroke="black" points="395.43,-957.31 405.26,-961.26 400.04,-952.04 395.43,-957.31"/>
<text text-anchor="middle" x="387.5" y="-927.8" font-family="Times,serif" font-size="14.00">3</text>
</g>
<!-- OQ&#45;&gt;QJ -->
<g id="edge54" class="edge">
<title>OQ&#45;&gt;QJ</title>
<path fill="none" stroke="black" d="M365.15,-870.01C362.94,-826.1 357.05,-708.6 354.36,-655.15"/>
<polygon fill="black" stroke="black" points="357.85,-654.87 353.86,-645.06 350.86,-655.22 357.85,-654.87"/>
<text text-anchor="middle" x="362.5" y="-753.8" font-family="Times,serif" font-size="14.00">3</text>
</g>
<!-- GJ -->
<g id="node13" class="node">
<title>GJ</title>
<ellipse fill="none" stroke="black" cx="187" cy="-801" rx="27" ry="18"/>
<text text-anchor="middle" x="187" y="-797.3" font-family="Times,serif" font-size="14.00">GJ</text>
</g>
<!-- OQ&#45;&gt;GJ -->
<g id="edge52" class="edge">
<title>OQ&#45;&gt;GJ</title>
<path fill="none" stroke="black" d="M340.39,-881.47C317.28,-875.89 282.75,-866.09 255,-852 239.29,-844.02 223.33,-832.51 210.83,-822.54"/>
<polygon fill="black" stroke="black" points="212.73,-819.57 202.77,-815.95 208.29,-824.99 212.73,-819.57"/>
<text text-anchor="middle" x="258.5" y="-840.8" font-family="Times,serif" font-size="14.00">3</text>
</g>
<!-- QJ&#45;&gt;QE -->
<g id="edge22" class="edge">
<title>QJ&#45;&gt;QE</title>
<path fill="none" stroke="black" d="M374.12,-638.29C398.41,-651.79 435,-677.94 435,-713 435,-889 435,-889 435,-889 435,-908.56 431.85,-930.41 428.77,-947.05"/>
<polygon fill="black" stroke="black" points="425.28,-946.68 426.8,-957.17 432.15,-948.02 425.28,-946.68"/>
<text text-anchor="middle" x="438.5" y="-797.3" font-family="Times,serif" font-size="14.00">3</text>
</g>
<!-- QJ&#45;&gt;OQ -->
<g id="edge24" class="edge">
<title>QJ&#45;&gt;OQ</title>
<path fill="none" stroke="black" d="M359.87,-644.45C361.95,-650.21 363.95,-656.79 365,-663 376.86,-733.2 372.27,-817.54 368.69,-859.91"/>
<polygon fill="black" stroke="black" points="365.19,-859.71 367.79,-869.98 372.17,-860.33 365.19,-859.71"/>
<text text-anchor="middle" x="375.5" y="-753.8" font-family="Times,serif" font-size="14.00">3</text>
</g>
<!-- OS -->
<g id="node8" class="node">
<title>OS</title>
<ellipse fill="none" stroke="black" cx="406" cy="-540" rx="27" ry="18"/>
<text text-anchor="middle" x="406" y="-536.3" font-family="Times,serif" font-size="14.00">OS</text>
</g>
<!-- QJ&#45;&gt;OS -->
<g id="edge25" class="edge">
<title>QJ&#45;&gt;OS</title>
<path fill="none" stroke="black" d="M354.01,-608.76C355.25,-598.61 358,-585.87 364,-576 367.78,-569.79 373.05,-564.16 378.59,-559.32"/>
<polygon fill="black" stroke="black" points="381.11,-561.79 386.76,-552.83 376.75,-556.31 381.11,-561.79"/>
<text text-anchor="middle" x="367.5" y="-579.8" font-family="Times,serif" font-size="14.00">2</text>
</g>
<!-- QJ&#45;&gt;GJ -->
<g id="edge23" class="edge">
<title>QJ&#45;&gt;GJ</title>
<path fill="none" stroke="black" d="M345.49,-644.43C329.25,-679.86 291.91,-760.61 287,-765 269.28,-780.83 243.98,-789.6 223.27,-794.4"/>
<polygon fill="black" stroke="black" points="222.28,-791.03 213.22,-796.51 223.72,-797.88 222.28,-791.03"/>
<text text-anchor="middle" x="325.5" y="-710.3" font-family="Times,serif" font-size="14.00">3</text>
</g>
<!-- DV -->
<g id="node15" class="node">
<title>DV</title>
<ellipse fill="none" stroke="black" cx="113" cy="-714" rx="27" ry="18"/>
<text text-anchor="middle" x="113" y="-710.3" font-family="Times,serif" font-size="14.00">DV</text>
</g>
<!-- QJ&#45;&gt;DV -->
<g id="edge26" class="edge">
<title>QJ&#45;&gt;DV</title>
<path fill="none" stroke="black" d="M330.28,-636.87C313.84,-643.52 291.22,-653.14 272,-663 260.47,-668.92 258.95,-672.98 247,-678 214.96,-691.47 176.39,-700.88 148.87,-706.53"/>
<polygon fill="black" stroke="black" points="148.03,-703.13 138.9,-708.51 149.39,-710 148.03,-703.13"/>
<text text-anchor="middle" x="275.5" y="-666.8" font-family="Times,serif" font-size="14.00">2</text>
</g>
<!-- FF -->
<g id="node4" class="node">
<title>FF</title>
<ellipse fill="none" stroke="black" cx="423" cy="-279" rx="27" ry="18"/>
<text text-anchor="middle" x="423" y="-275.3" font-family="Times,serif" font-size="14.00">FF</text>
</g>
<!-- LU -->
<g id="node5" class="node">
<title>LU</title>
<ellipse fill="none" stroke="black" cx="297" cy="-192" rx="27" ry="18"/>
<text text-anchor="middle" x="297" y="-188.3" font-family="Times,serif" font-size="14.00">LU</text>
</g>
<!-- FF&#45;&gt;LU -->
<g id="edge3" class="edge">
<title>FF&#45;&gt;LU</title>
<path fill="none" stroke="black" d="M400.72,-268.7C386.54,-262.33 368.07,-253.22 353,-243 340.92,-234.8 328.68,-224.2 318.74,-214.87"/>
<polygon fill="black" stroke="black" points="320.95,-212.14 311.31,-207.73 316.1,-217.18 320.95,-212.14"/>
<text text-anchor="middle" x="356.5" y="-231.8" font-family="Times,serif" font-size="14.00">7</text>
</g>
<!-- KU -->
<g id="node6" class="node">
<title>KU</title>
<ellipse fill="none" stroke="black" cx="395" cy="-18" rx="27" ry="18"/>
<text text-anchor="middle" x="395" y="-14.3" font-family="Times,serif" font-size="14.00">KU</text>
</g>
<!-- FF&#45;&gt;KU -->
<g id="edge4" class="edge">
<title>FF&#45;&gt;KU</title>
<path fill="none" stroke="black" d="M443.66,-266.79C452.25,-260.93 461.29,-252.91 466,-243 502.07,-167.14 510.36,-125.33 466,-54 458,-41.13 443.72,-32.86 430.06,-27.61"/>
<polygon fill="black" stroke="black" points="430.91,-24.2 420.32,-24.29 428.66,-30.83 430.91,-24.2"/>
<text text-anchor="middle" x="499.5" y="-144.8" font-family="Times,serif" font-size="14.00">2</text>
</g>
<!-- HY -->
<g id="node7" class="node">
<title>HY</title>
<ellipse fill="none" stroke="black" cx="417" cy="-366" rx="27" ry="18"/>
<text text-anchor="middle" x="417" y="-362.3" font-family="Times,serif" font-size="14.00">HY</text>
</g>
<!-- FF&#45;&gt;HY -->
<g id="edge5" class="edge">
<title>FF&#45;&gt;HY</title>
<path fill="none" stroke="black" d="M421.79,-297.18C420.97,-308.81 419.86,-324.42 418.92,-337.73"/>
<polygon fill="black" stroke="black" points="415.43,-337.58 418.21,-347.8 422.41,-338.07 415.43,-337.58"/>
<text text-anchor="middle" x="423.5" y="-318.8" font-family="Times,serif" font-size="14.00">9</text>
</g>
<!-- FF&#45;&gt;OS -->
<g id="edge6" class="edge">
<title>FF&#45;&gt;OS</title>
<path fill="none" stroke="black" d="M446.22,-288.19C472.5,-297.57 511.96,-312.03 514,-315 561.56,-384.24 563.4,-436.06 514,-504 497.97,-526.04 467.76,-534.48 443.36,-537.59"/>
<polygon fill="black" stroke="black" points="442.9,-534.11 433.31,-538.61 443.62,-541.08 442.9,-534.11"/>
<text text-anchor="middle" x="553.5" y="-405.8" font-family="Times,serif" font-size="14.00">2</text>
</g>
<!-- SB -->
<g id="node9" class="node">
<title>SB</title>
<ellipse fill="none" stroke="black" cx="282" cy="-105" rx="27" ry="18"/>
<text text-anchor="middle" x="282" y="-101.3" font-family="Times,serif" font-size="14.00">SB</text>
</g>
<!-- FF&#45;&gt;SB -->
<g id="edge7" class="edge">
<title>FF&#45;&gt;SB</title>
<path fill="none" stroke="black" d="M412.38,-261.93C405.65,-251.97 396.61,-239.02 388,-228 359.76,-191.84 324.35,-152.1 302.45,-128.11"/>
<polygon fill="black" stroke="black" points="304.91,-125.61 295.57,-120.6 299.75,-130.34 304.91,-125.61"/>
<text text-anchor="middle" x="379" y="-188.3" font-family="Times,serif" font-size="14.00">10</text>
</g>
<!-- LU&#45;&gt;FF -->
<g id="edge10" class="edge">
<title>LU&#45;&gt;FF</title>
<path fill="none" stroke="black" d="M317.47,-203.84C329.51,-210.44 344.9,-219.26 358,-228 371.82,-237.22 386.54,-248.42 398.48,-257.88"/>
<polygon fill="black" stroke="black" points="396.63,-260.89 406.62,-264.41 401.01,-255.43 396.63,-260.89"/>
<text text-anchor="middle" x="381.5" y="-231.8" font-family="Times,serif" font-size="14.00">7</text>
</g>
<!-- LU&#45;&gt;KU -->
<g id="edge11" class="edge">
<title>LU&#45;&gt;KU</title>
<path fill="none" stroke="black" d="M306.22,-174.82C323.37,-144.73 360.26,-79.97 380.68,-44.13"/>
<polygon fill="black" stroke="black" points="383.82,-45.68 385.73,-35.26 377.74,-42.22 383.82,-45.68"/>
<text text-anchor="middle" x="358.5" y="-101.3" font-family="Times,serif" font-size="14.00">8</text>
</g>
<!-- LU&#45;&gt;HY -->
<g id="edge14" class="edge">
<title>LU&#45;&gt;HY</title>
<path fill="none" stroke="black" d="M307.65,-208.81C314.32,-218.67 323.11,-231.61 331,-243 354.65,-277.16 382.4,-316.38 399.85,-340.92"/>
<polygon fill="black" stroke="black" points="397.13,-343.15 405.78,-349.27 402.84,-339.09 397.13,-343.15"/>
<text text-anchor="middle" x="370.5" y="-275.3" font-family="Times,serif" font-size="14.00">6</text>
</g>
<!-- LU&#45;&gt;SB -->
<g id="edge13" class="edge">
<title>LU&#45;&gt;SB</title>
<path fill="none" stroke="black" d="M287.83,-174.77C285.06,-169.03 282.39,-162.4 281,-156 279.42,-148.73 279.01,-140.73 279.16,-133.3"/>
<polygon fill="black" stroke="black" points="282.65,-133.49 279.69,-123.32 275.66,-133.12 282.65,-133.49"/>
<text text-anchor="middle" x="284.5" y="-144.8" font-family="Times,serif" font-size="14.00">7</text>
</g>
<!-- LU&#45;&gt;GJ -->
<g id="edge12" class="edge">
<title>LU&#45;&gt;GJ</title>
<path fill="none" stroke="black" d="M293.91,-210.04C278.61,-294.48 210.88,-668.21 191.94,-772.75"/>
<polygon fill="black" stroke="black" points="188.45,-772.35 190.11,-782.81 195.34,-773.6 188.45,-772.35"/>
<text text-anchor="middle" x="247.5" y="-492.8" font-family="Times,serif" font-size="14.00">3</text>
</g>
<!-- KU&#45;&gt;FF -->
<g id="edge41" class="edge">
<title>KU&#45;&gt;FF</title>
<path fill="none" stroke="black" d="M398.45,-36.08C399.59,-41.78 400.86,-48.16 402,-54 417.04,-130.8 426.11,-149.79 429,-228 429.25,-234.66 429.57,-236.36 429,-243 428.78,-245.58 428.47,-248.26 428.11,-250.93"/>
<polygon fill="black" stroke="black" points="424.62,-250.56 426.51,-260.98 431.54,-251.66 424.62,-250.56"/>
<text text-anchor="middle" x="425.5" y="-144.8" font-family="Times,serif" font-size="14.00">2</text>
</g>
<!-- KU&#45;&gt;LU -->
<g id="edge40" class="edge">
<title>KU&#45;&gt;LU</title>
<path fill="none" stroke="black" d="M392.94,-36.26C389.78,-57.8 382.29,-95.18 366,-123 354.88,-141.98 337.12,-159.31 322.4,-171.73"/>
<polygon fill="black" stroke="black" points="320.13,-169.07 314.59,-178.1 324.55,-174.49 320.13,-169.07"/>
<text text-anchor="middle" x="384.5" y="-101.3" font-family="Times,serif" font-size="14.00">8</text>
</g>
<!-- KU&#45;&gt;HY -->
<g id="edge42" class="edge">
<title>KU&#45;&gt;HY</title>
<path fill="none" stroke="black" d="M421.67,-21.86C488.53,-29.78 658,-54.7 658,-104 658,-280 658,-280 658,-280 658,-313.04 632.57,-315.28 603,-330 555.28,-353.76 493.33,-361.46 454.36,-363.92"/>
<polygon fill="black" stroke="black" points="453.81,-360.44 444.01,-364.48 454.19,-367.43 453.81,-360.44"/>
<text text-anchor="middle" x="665" y="-188.3" font-family="Times,serif" font-size="14.00">10</text>
</g>
<!-- KU&#45;&gt;SB -->
<g id="edge38" class="edge">
<title>KU&#45;&gt;SB</title>
<path fill="none" stroke="black" d="M376.71,-31.78C367.44,-38.33 356.05,-46.49 346,-54 332.91,-63.78 318.56,-74.95 306.77,-84.25"/>
<polygon fill="black" stroke="black" points="304.36,-81.69 298.69,-90.64 308.71,-87.18 304.36,-81.69"/>
<text text-anchor="middle" x="353" y="-57.8" font-family="Times,serif" font-size="14.00">11</text>
</g>
<!-- KU&#45;&gt;DV -->
<g id="edge39" class="edge">
<title>KU&#45;&gt;DV</title>
<path fill="none" stroke="black" d="M368.31,-21.33C298.17,-28.18 114,-51.18 114,-104 114,-236.5 114,-236.5 114,-236.5 114,-313.16 127,-331.84 127,-408.5 127,-628 127,-628 127,-628 127,-647.63 123.32,-669.47 119.73,-686.1"/>
<polygon fill="black" stroke="black" points="116.24,-685.67 117.43,-696.2 123.07,-687.23 116.24,-685.67"/>
<text text-anchor="middle" x="130.5" y="-362.3" font-family="Times,serif" font-size="14.00">3</text>
</g>
<!-- HY&#45;&gt;FF -->
<g id="edge18" class="edge">
<title>HY&#45;&gt;FF</title>
<path fill="none" stroke="black" d="M410.8,-348.29C407.98,-338.56 405.73,-326.06 408,-315 408.63,-311.93 409.54,-308.79 410.61,-305.72"/>
<polygon fill="black" stroke="black" points="413.92,-306.87 414.4,-296.29 407.42,-304.26 413.92,-306.87"/>
<text text-anchor="middle" x="411.5" y="-318.8" font-family="Times,serif" font-size="14.00">9</text>
</g>
<!-- HY&#45;&gt;LU -->
<g id="edge16" class="edge">
<title>HY&#45;&gt;LU</title>
<path fill="none" stroke="black" d="M397.34,-353.63C378.39,-341.74 350.13,-321.42 333,-297 316.69,-273.75 307.18,-242.43 302.07,-220.25"/>
<polygon fill="black" stroke="black" points="305.43,-219.22 299.91,-210.17 298.59,-220.69 305.43,-219.22"/>
<text text-anchor="middle" x="336.5" y="-275.3" font-family="Times,serif" font-size="14.00">6</text>
</g>
<!-- HY&#45;&gt;KU -->
<g id="edge17" class="edge">
<title>HY&#45;&gt;KU</title>
<path fill="none" stroke="black" d="M443.96,-364.89C496.61,-363.11 608,-350.96 608,-280 608,-280 608,-280 608,-104 608,-66.27 491.24,-37.81 430.62,-25.58"/>
<polygon fill="black" stroke="black" points="431.18,-22.13 420.69,-23.62 429.83,-28.99 431.18,-22.13"/>
<text text-anchor="middle" x="615" y="-188.3" font-family="Times,serif" font-size="14.00">10</text>
</g>
<!-- HY&#45;&gt;SB -->
<g id="edge21" class="edge">
<title>HY&#45;&gt;SB</title>
<path fill="none" stroke="black" d="M390,-363.28C343.41,-359.8 250.54,-350.45 226,-330 161.34,-276.12 161.99,-207.17 214,-141 222.61,-130.04 235.59,-122.19 247.91,-116.73"/>
<polygon fill="black" stroke="black" points="249.57,-119.84 257.55,-112.86 246.96,-113.34 249.57,-119.84"/>
<text text-anchor="middle" x="180.5" y="-231.8" font-family="Times,serif" font-size="14.00">9</text>
</g>
<!-- EE -->
<g id="node12" class="node">
<title>EE</title>
<ellipse fill="none" stroke="black" cx="509" cy="-279" rx="27" ry="18"/>
<text text-anchor="middle" x="509" y="-275.3" font-family="Times,serif" font-size="14.00">EE</text>
</g>
<!-- HY&#45;&gt;EE -->
<g id="edge19" class="edge">
<title>HY&#45;&gt;EE</title>
<path fill="none" stroke="black" d="M425.58,-348.81C431.69,-338.32 440.64,-324.82 451,-315 459.15,-307.28 469.29,-300.45 478.8,-294.92"/>
<polygon fill="black" stroke="black" points="480.59,-297.93 487.64,-290.03 477.2,-291.8 480.59,-297.93"/>
<text text-anchor="middle" x="454.5" y="-318.8" font-family="Times,serif" font-size="14.00">2</text>
</g>
<!-- SQ -->
<g id="node14" class="node">
<title>SQ</title>
<ellipse fill="none" stroke="black" cx="404" cy="-453" rx="27" ry="18"/>
<text text-anchor="middle" x="404" y="-449.3" font-family="Times,serif" font-size="14.00">SQ</text>
</g>
<!-- HY&#45;&gt;SQ -->
<g id="edge20" class="edge">
<title>HY&#45;&gt;SQ</title>
<path fill="none" stroke="black" d="M414.37,-384.18C412.59,-395.81 410.21,-411.42 408.17,-424.73"/>
<polygon fill="black" stroke="black" points="404.68,-424.38 406.63,-434.8 411.6,-425.44 404.68,-424.38"/>
<text text-anchor="middle" x="414.5" y="-405.8" font-family="Times,serif" font-size="14.00">3</text>
</g>
<!-- OS&#45;&gt;QJ -->
<g id="edge36" class="edge">
<title>OS&#45;&gt;QJ</title>
<path fill="none" stroke="black" d="M396.08,-556.92C388.32,-569.36 377.38,-586.89 368.48,-601.18"/>
<polygon fill="black" stroke="black" points="365.29,-599.67 362.97,-610.01 371.23,-603.38 365.29,-599.67"/>
<text text-anchor="middle" x="385.5" y="-579.8" font-family="Times,serif" font-size="14.00">2</text>
</g>
<!-- OS&#45;&gt;FF -->
<g id="edge35" class="edge">
<title>OS&#45;&gt;FF</title>
<path fill="none" stroke="black" d="M415.03,-522.86C422.39,-509.3 432.71,-489.26 440,-471 464.29,-410.15 473.34,-394.8 483,-330 483.98,-323.41 486.32,-320.78 483,-315 477.05,-304.65 466.73,-297.07 456.31,-291.66"/>
<polygon fill="black" stroke="black" points="457.78,-288.49 447.23,-287.46 454.84,-294.84 457.78,-288.49"/>
<text text-anchor="middle" x="469.5" y="-405.8" font-family="Times,serif" font-size="14.00">2</text>
</g>
<!-- OS&#45;&gt;SQ -->
<g id="edge37" class="edge">
<title>OS&#45;&gt;SQ</title>
<path fill="none" stroke="black" d="M392,-524.54C387.23,-518.65 382.47,-511.47 380,-504 377.02,-495 379.88,-485.54 384.53,-477.29"/>
<polygon fill="black" stroke="black" points="387.48,-479.17 390.08,-468.9 381.64,-475.31 387.48,-479.17"/>
<text text-anchor="middle" x="383.5" y="-492.8" font-family="Times,serif" font-size="14.00">2</text>
</g>
<!-- SB&#45;&gt;FF -->
<g id="edge47" class="edge">
<title>SB&#45;&gt;FF</title>
<path fill="none" stroke="black" d="M304.61,-115.14C328.51,-125.88 365.75,-145.88 388,-174 405.76,-196.44 414.73,-228.35 419.11,-250.9"/>
<polygon fill="black" stroke="black" points="415.67,-251.59 420.86,-260.83 422.57,-250.37 415.67,-251.59"/>
<text text-anchor="middle" x="414" y="-188.3" font-family="Times,serif" font-size="14.00">10</text>
</g>
<!-- SB&#45;&gt;LU -->
<g id="edge44" class="edge">
<title>SB&#45;&gt;LU</title>
<path fill="none" stroke="black" d="M285.03,-123.18C287.08,-134.81 289.84,-150.42 292.19,-163.73"/>
<polygon fill="black" stroke="black" points="288.78,-164.56 293.96,-173.8 295.67,-163.34 288.78,-164.56"/>
<text text-anchor="middle" x="294.5" y="-144.8" font-family="Times,serif" font-size="14.00">7</text>
</g>
<!-- SB&#45;&gt;KU -->
<g id="edge43" class="edge">
<title>SB&#45;&gt;KU</title>
<path fill="none" stroke="black" d="M287.65,-87.25C292.02,-76.51 299.01,-62.96 309,-54 323.21,-41.25 342.68,-32.81 359.5,-27.42"/>
<polygon fill="black" stroke="black" points="360.96,-30.63 369.55,-24.44 358.97,-23.92 360.96,-30.63"/>
<text text-anchor="middle" x="316" y="-57.8" font-family="Times,serif" font-size="14.00">11</text>
</g>
<!-- SB&#45;&gt;HY -->
<g id="edge45" class="edge">
<title>SB&#45;&gt;HY</title>
<path fill="none" stroke="black" d="M274.06,-122.36C265.12,-142.96 252.83,-179.39 261,-210 277.79,-272.9 291.69,-292.63 345,-330 357.24,-338.58 371.91,-346.13 384.8,-352"/>
<polygon fill="black" stroke="black" points="383.68,-355.33 394.25,-356.15 386.5,-348.93 383.68,-355.33"/>
<text text-anchor="middle" x="274.5" y="-231.8" font-family="Times,serif" font-size="14.00">9</text>
</g>
<!-- SB&#45;&gt;GJ -->
<g id="edge46" class="edge">
<title>SB&#45;&gt;GJ</title>
<path fill="none" stroke="black" d="M257.3,-112.87C240.05,-118.51 217.13,-127.73 200,-141 122.83,-200.77 103.24,-224.78 66,-315 35.14,-389.75 43,-414.63 43,-495.5 43,-715 43,-715 43,-715 43,-764.88 107.88,-786.1 150.54,-794.65"/>
<polygon fill="black" stroke="black" points="150.12,-798.14 160.59,-796.52 151.4,-791.25 150.12,-798.14"/>
<text text-anchor="middle" x="46.5" y="-449.3" font-family="Times,serif" font-size="14.00">3</text>
</g>
<!-- AH -->
<g id="node10" class="node">
<title>AH</title>
<ellipse fill="none" stroke="black" cx="545" cy="-192" rx="27" ry="18"/>
<text text-anchor="middle" x="545" y="-188.3" font-family="Times,serif" font-size="14.00">AH</text>
</g>
<!-- VI -->
<g id="node11" class="node">
<title>VI</title>
<ellipse fill="none" stroke="black" cx="547" cy="-105" rx="27" ry="18"/>
<text text-anchor="middle" x="547" y="-101.3" font-family="Times,serif" font-size="14.00">VI</text>
</g>
<!-- AH&#45;&gt;VI -->
<g id="edge8" class="edge">
<title>AH&#45;&gt;VI</title>
<path fill="none" stroke="black" d="M545.4,-173.8C545.68,-162.16 546.05,-146.55 546.36,-133.24"/>
<polygon fill="black" stroke="black" points="549.86,-133.26 546.6,-123.18 542.86,-133.09 549.86,-133.26"/>
<text text-anchor="middle" x="549.5" y="-144.8" font-family="Times,serif" font-size="14.00">3</text>
</g>
<!-- AH&#45;&gt;EE -->
<g id="edge9" class="edge">
<title>AH&#45;&gt;EE</title>
<path fill="none" stroke="black" d="M535.52,-209.09C532.28,-214.94 528.77,-221.67 526,-228 522.73,-235.48 519.68,-243.8 517.09,-251.47"/>
<polygon fill="black" stroke="black" points="513.73,-250.47 513.97,-261.06 520.39,-252.63 513.73,-250.47"/>
<text text-anchor="middle" x="529.5" y="-231.8" font-family="Times,serif" font-size="14.00">2</text>
</g>
<!-- VI&#45;&gt;AH -->
<g id="edge15" class="edge">
<title>VI&#45;&gt;AH</title>
<path fill="none" stroke="black" d="M540.11,-122.44C538.04,-128.21 536.03,-134.79 535,-141 533.72,-148.68 534.5,-156.99 536.08,-164.59"/>
<polygon fill="black" stroke="black" points="532.72,-165.57 538.6,-174.38 539.5,-163.83 532.72,-165.57"/>
<text text-anchor="middle" x="538.5" y="-144.8" font-family="Times,serif" font-size="14.00">3</text>
</g>
<!-- EE&#45;&gt;HY -->
<g id="edge51" class="edge">
<title>EE&#45;&gt;HY</title>
<path fill="none" stroke="black" d="M494.24,-294.11C483.66,-304.18 469.03,-318.01 456,-330 450.99,-334.61 445.58,-339.51 440.43,-344.15"/>
<polygon fill="black" stroke="black" points="437.75,-341.84 432.64,-351.12 442.43,-347.06 437.75,-341.84"/>
<text text-anchor="middle" x="475.5" y="-318.8" font-family="Times,serif" font-size="14.00">2</text>
</g>
<!-- EE&#45;&gt;AH -->
<g id="edge50" class="edge">
<title>EE&#45;&gt;AH</title>
<path fill="none" stroke="black" d="M520.09,-262.51C523.94,-256.61 528.03,-249.69 531,-243 534.21,-235.75 536.87,-227.57 538.98,-219.97"/>
<polygon fill="black" stroke="black" points="542.42,-220.64 541.51,-210.09 535.64,-218.91 542.42,-220.64"/>
<text text-anchor="middle" x="539.5" y="-231.8" font-family="Times,serif" font-size="14.00">2</text>
</g>
<!-- GJ&#45;&gt;OQ -->
<g id="edge31" class="edge">
<title>GJ&#45;&gt;OQ</title>
<path fill="none" stroke="black" d="M208.39,-812.16C239.94,-827.14 299.11,-855.24 335.3,-872.42"/>
<polygon fill="black" stroke="black" points="333.87,-875.62 344.41,-876.75 336.88,-869.3 333.87,-875.62"/>
<text text-anchor="middle" x="291.5" y="-840.8" font-family="Times,serif" font-size="14.00">3</text>
</g>
<!-- GJ&#45;&gt;QJ -->
<g id="edge29" class="edge">
<title>GJ&#45;&gt;QJ</title>
<path fill="none" stroke="black" d="M201.15,-785.34C230.31,-755.12 297.22,-685.8 331.66,-650.12"/>
<polygon fill="black" stroke="black" points="334.46,-652.25 338.88,-642.63 329.42,-647.39 334.46,-652.25"/>
<text text-anchor="middle" x="290.5" y="-710.3" font-family="Times,serif" font-size="14.00">3</text>
</g>
<!-- GJ&#45;&gt;LU -->
<g id="edge27" class="edge">
<title>GJ&#45;&gt;LU</title>
<path fill="none" stroke="black" d="M180.99,-783.31C175.42,-766.35 168,-739.19 168,-715 168,-715 168,-715 168,-495.5 168,-383.47 243.79,-265.46 279.18,-216.46"/>
<polygon fill="black" stroke="black" points="282,-218.53 285.1,-208.39 276.36,-214.39 282,-218.53"/>
<text text-anchor="middle" x="171.5" y="-492.8" font-family="Times,serif" font-size="14.00">3</text>
</g>
<!-- GJ&#45;&gt;SB -->
<g id="edge30" class="edge">
<title>GJ&#45;&gt;SB</title>
<path fill="none" stroke="black" d="M159.81,-799.65C107.94,-797.39 0,-784.36 0,-715 0,-715 0,-715 0,-321.5 0,-216.34 57.95,-186 153,-141 182.81,-126.89 219.28,-117.66 245.83,-112.24"/>
<polygon fill="black" stroke="black" points="246.7,-115.63 255.84,-110.28 245.35,-108.76 246.7,-115.63"/>
<text text-anchor="middle" x="3.5" y="-449.3" font-family="Times,serif" font-size="14.00">3</text>
</g>
<!-- GJ&#45;&gt;DV -->
<g id="edge28" class="edge">
<title>GJ&#45;&gt;DV</title>
<path fill="none" stroke="black" d="M161.74,-794.13C146.16,-789.11 127.26,-780.21 117,-765 112.53,-758.37 110.75,-750.07 110.31,-742.15"/>
<polygon fill="black" stroke="black" points="113.81,-742.15 110.38,-732.12 106.81,-742.1 113.81,-742.15"/>
<text text-anchor="middle" x="120.5" y="-753.8" font-family="Times,serif" font-size="14.00">2</text>
</g>
<!-- SQ&#45;&gt;HY -->
<g id="edge48" class="edge">
<title>SQ&#45;&gt;HY</title>
<path fill="none" stroke="black" d="M400.66,-434.7C399.36,-424.99 398.67,-412.71 401,-402 401.67,-398.9 402.65,-395.75 403.79,-392.67"/>
<polygon fill="black" stroke="black" points="407.11,-393.8 407.83,-383.23 400.68,-391.04 407.11,-393.8"/>
<text text-anchor="middle" x="404.5" y="-405.8" font-family="Times,serif" font-size="14.00">3</text>
</g>
<!-- SQ&#45;&gt;OS -->
<g id="edge49" class="edge">
<title>SQ&#45;&gt;OS</title>
<path fill="none" stroke="black" d="M404.4,-471.18C404.68,-482.81 405.05,-498.42 405.36,-511.73"/>
<polygon fill="black" stroke="black" points="401.86,-511.88 405.6,-521.8 408.86,-511.72 401.86,-511.88"/>
<text text-anchor="middle" x="408.5" y="-492.8" font-family="Times,serif" font-size="14.00">2</text>
</g>
<!-- DV&#45;&gt;QJ -->
<g id="edge34" class="edge">
<title>DV&#45;&gt;QJ</title>
<path fill="none" stroke="black" d="M135.67,-703.7C161.31,-693.31 204.38,-676.21 242,-663 267.63,-654 296.94,-644.81 319.01,-638.1"/>
<polygon fill="black" stroke="black" points="320.04,-641.44 328.6,-635.2 318.01,-634.74 320.04,-641.44"/>
<text text-anchor="middle" x="245.5" y="-666.8" font-family="Times,serif" font-size="14.00">2</text>
</g>
<!-- DV&#45;&gt;KU -->
<g id="edge32" class="edge">
<title>DV&#45;&gt;KU</title>
<path fill="none" stroke="black" d="M103.98,-696.94C95.47,-680.25 84,-653.1 84,-628 84,-628 84,-628 84,-408.5 84,-331.97 76,-313.03 76,-236.5 76,-236.5 76,-236.5 76,-104 76,-79.35 79.95,-68.34 100,-54 140.5,-25.04 287.73,-19.86 357.65,-19.06"/>
<polygon fill="black" stroke="black" points="357.81,-22.55 367.78,-18.96 357.75,-15.55 357.81,-22.55"/>
<text text-anchor="middle" x="87.5" y="-362.3" font-family="Times,serif" font-size="14.00">3</text>
</g>
<!-- DV&#45;&gt;GJ -->
<g id="edge33" class="edge">
<title>DV&#45;&gt;GJ</title>
<path fill="none" stroke="black" d="M122.85,-731C129.44,-741.17 138.58,-754.37 148,-765 152.43,-770 157.54,-775.02 162.56,-779.63"/>
<polygon fill="black" stroke="black" points="160.47,-782.46 170.28,-786.47 165.12,-777.22 160.47,-782.46"/>
<text text-anchor="middle" x="151.5" y="-753.8" font-family="Times,serif" font-size="14.00">2</text>
</g>
</g>
</svg>
